<svg width="182" height="40" viewBox="0 0 182 40" fill="none" xmlns="http://www.w3.org/2000/svg">
<path d="M63.524 27.248H56.188L55.012 30.72H50L57.112 11.064H62.656L69.768 30.72H64.7L63.524 27.248ZM62.292 23.552L59.856 16.356L57.448 23.552H62.292Z" fill="white"/>
<path d="M74.1725 30.944C73.3325 30.944 72.6419 30.7013 72.1005 30.216C71.5779 29.712 71.3165 29.096 71.3165 28.368C71.3165 27.6213 71.5779 26.996 72.1005 26.492C72.6419 25.988 73.3325 25.736 74.1725 25.736C74.9939 25.736 75.6659 25.988 76.1885 26.492C76.7299 26.996 77.0005 27.6213 77.0005 28.368C77.0005 29.096 76.7299 29.712 76.1885 30.216C75.6659 30.7013 74.9939 30.944 74.1725 30.944Z" fill="white"/>
<path d="M92.1549 11.064V24.448C92.1549 26.52 91.5669 28.116 90.3909 29.236C89.2335 30.356 87.6655 30.916 85.6869 30.916C83.6149 30.916 81.9535 30.328 80.7029 29.152C79.4522 27.976 78.8269 26.3053 78.8269 24.14H83.5869C83.5869 24.9613 83.7549 25.5867 84.0909 26.016C84.4269 26.4267 84.9122 26.632 85.5469 26.632C86.1255 26.632 86.5735 26.4453 86.8909 26.072C87.2082 25.6987 87.3669 25.1573 87.3669 24.448V11.064H92.1549Z" fill="white"/>
<path d="M98.2624 30.944C97.4224 30.944 96.7317 30.7013 96.1904 30.216C95.6677 29.712 95.4064 29.096 95.4064 28.368C95.4064 27.6213 95.6677 26.996 96.1904 26.492C96.7317 25.988 97.4224 25.736 98.2624 25.736C99.0837 25.736 99.7557 25.988 100.278 26.492C100.82 26.996 101.09 27.6213 101.09 28.368C101.09 29.096 100.82 29.712 100.278 30.216C99.7557 30.7013 99.0837 30.944 98.2624 30.944Z" fill="white"/>
<path d="M109.046 20.864C109.046 18.9227 109.466 17.196 110.306 15.684C111.146 14.1533 112.313 12.968 113.806 12.128C115.318 11.2693 117.026 10.84 118.93 10.84C121.264 10.84 123.261 11.456 124.922 12.688C126.584 13.92 127.694 15.6 128.254 17.728H122.99C122.598 16.9067 122.038 16.2813 121.31 15.852C120.601 15.4227 119.789 15.208 118.874 15.208C117.4 15.208 116.205 15.7213 115.29 16.748C114.376 17.7747 113.918 19.1467 113.918 20.864C113.918 22.5813 114.376 23.9533 115.29 24.98C116.205 26.0067 117.4 26.52 118.874 26.52C119.789 26.52 120.601 26.3053 121.31 25.876C122.038 25.4467 122.598 24.8213 122.99 24H128.254C127.694 26.128 126.584 27.808 124.922 29.04C123.261 30.2533 121.264 30.86 118.93 30.86C117.026 30.86 115.318 30.44 113.806 29.6C112.313 28.7413 111.146 27.556 110.306 26.044C109.466 24.532 109.046 22.8053 109.046 20.864Z" fill="white"/>
<path d="M130.234 22.88C130.234 21.2747 130.533 19.8653 131.13 18.652C131.746 17.4387 132.577 16.5053 133.622 15.852C134.668 15.1987 135.834 14.872 137.122 14.872C138.224 14.872 139.185 15.096 140.006 15.544C140.846 15.992 141.49 16.58 141.938 17.308V15.096H146.726V30.72H141.938V28.508C141.472 29.236 140.818 29.824 139.978 30.272C139.157 30.72 138.196 30.944 137.094 30.944C135.825 30.944 134.668 30.6173 133.622 29.964C132.577 29.292 131.746 28.3493 131.13 27.136C130.533 25.904 130.234 24.4853 130.234 22.88ZM141.938 22.908C141.938 21.7133 141.602 20.7707 140.93 20.08C140.277 19.3893 139.474 19.044 138.522 19.044C137.57 19.044 136.758 19.3893 136.086 20.08C135.433 20.752 135.106 21.6853 135.106 22.88C135.106 24.0747 135.433 25.0267 136.086 25.736C136.758 26.4267 137.57 26.772 138.522 26.772C139.474 26.772 140.277 26.4267 140.93 25.736C141.602 25.0453 141.938 24.1027 141.938 22.908Z" fill="white"/>
<path d="M156.546 30.944C155.184 30.944 153.97 30.7107 152.906 30.244C151.842 29.7773 151.002 29.1427 150.386 28.34C149.77 27.5187 149.425 26.604 149.35 25.596H154.082C154.138 26.1373 154.39 26.576 154.838 26.912C155.286 27.248 155.837 27.416 156.49 27.416C157.088 27.416 157.545 27.304 157.862 27.08C158.198 26.8373 158.366 26.5293 158.366 26.156C158.366 25.708 158.133 25.3813 157.666 25.176C157.2 24.952 156.444 24.7093 155.398 24.448C154.278 24.1867 153.345 23.916 152.598 23.636C151.852 23.3373 151.208 22.88 150.666 22.264C150.125 21.6293 149.854 20.78 149.854 19.716C149.854 18.82 150.097 18.008 150.582 17.28C151.086 16.5333 151.814 15.9453 152.766 15.516C153.737 15.0867 154.885 14.872 156.21 14.872C158.17 14.872 159.71 15.3573 160.83 16.328C161.969 17.2987 162.622 18.5867 162.79 20.192H158.366C158.292 19.6507 158.049 19.2213 157.638 18.904C157.246 18.5867 156.724 18.428 156.07 18.428C155.51 18.428 155.081 18.54 154.782 18.764C154.484 18.9693 154.334 19.2587 154.334 19.632C154.334 20.08 154.568 20.416 155.034 20.64C155.52 20.864 156.266 21.088 157.274 21.312C158.432 21.6107 159.374 21.9093 160.102 22.208C160.83 22.488 161.465 22.9547 162.006 23.608C162.566 24.2427 162.856 25.1013 162.874 26.184C162.874 27.0987 162.613 27.92 162.09 28.648C161.586 29.3573 160.849 29.9173 159.878 30.328C158.926 30.7387 157.816 30.944 156.546 30.944Z" fill="white"/>
<path d="M175.408 14.928C177.2 14.928 178.637 15.5253 179.72 16.72C180.802 17.896 181.344 19.52 181.344 21.592V30.72H176.584V22.236C176.584 21.1907 176.313 20.3787 175.772 19.8C175.23 19.2213 174.502 18.932 173.588 18.932C172.673 18.932 171.945 19.2213 171.404 19.8C170.862 20.3787 170.592 21.1907 170.592 22.236V30.72H165.804V10H170.592V17.196C171.077 16.5053 171.74 15.9547 172.58 15.544C173.42 15.1333 174.362 14.928 175.408 14.928Z" fill="white"/>
<path d="M34.1422 5.85781C30.3647 2.08031 25.3422 0 20 0C14.6578 0 9.63531 2.08031 5.85781 5.85781C2.08031 9.63531 0 14.6578 0 20C0 25.3422 2.08039 30.3646 5.85781 34.1422C9.63523 37.9198 14.6578 40 20 40C25.3422 40 30.3647 37.9197 34.1422 34.1422C37.9197 30.3647 40 25.3422 40 20C40 14.6578 37.9196 9.63539 34.1422 5.85781Z" fill="#33CC95"/>
<g clip-path="url(#clip0_35212_417)">
<path d="M20.5714 8V33.1429" stroke="white" stroke-width="2" stroke-linecap="round" stroke-linejoin="round"/>
<path d="M26.2857 12.5714H17.7143C16.6534 12.5714 15.636 12.9929 14.8859 13.743C14.1357 14.4931 13.7143 15.5106 13.7143 16.5714C13.7143 17.6323 14.1357 18.6497 14.8859 19.3999C15.636 20.15 16.6534 20.5714 17.7143 20.5714H23.4286C24.4894 20.5714 25.5069 20.9929 26.257 21.743C27.0072 22.4932 27.4286 23.5106 27.4286 24.5714C27.4286 25.6323 27.0072 26.6497 26.257 27.3999C25.5069 28.15 24.4894 28.5714 23.4286 28.5714H13.7143" stroke="white" stroke-width="2" stroke-linecap="round" stroke-linejoin="round"/>
</g>
<defs>
<clipPath id="clip0_35212_417">
<rect width="27.4286" height="27.4286" fill="white" transform="translate(6.85715 6.85714)"/>
</clipPath>
</defs>
</svg>
